<?xml version="1.0" standalone="no"?>
<!DOCTYPE svg PUBLIC "-//W3C//DTD SVG 20010904//EN"
 "http://www.w3.org/TR/2001/REC-SVG-20010904/DTD/svg10.dtd">
<svg version="1.0" xmlns="http://www.w3.org/2000/svg"
 width="260.000000pt" height="260.000000pt" viewBox="0 0 260.000000 260.000000"
 preserveAspectRatio="xMidYMid meet">
<metadata>
Created by potrace 1.11, written by Peter Selinger 2001-2013
</metadata>
<g transform="translate(0.000000,260.000000) scale(0.100000,-0.100000)"
fill="#000000" stroke="none">
<path d="M1300 1921 c0 -6 -13 -11 -30 -11 l-30 0 0 -609 0 -609 33 -4 32 -3
-3 609 c-2 442 1 612 9 617 8 5 8 8 0 13 -6 4 -11 2 -11 -3z"/>
<path d="M70 1885 l0 -30 220 3 220 3 0 -586 0 -585 30 0 30 0 -2 585 -3 586
220 -1 220 -2 3 26 3 26 -470 2 -471 3 0 -30z"/>
<path d="M1650 1299 l0 -611 228 4 c204 3 233 6 287 26 68 25 68 25 60 12 -3
-6 -1 -10 5 -10 6 0 10 6 8 14 -2 8 15 26 36 41 31 21 41 24 48 13 8 -10 9 -9
5 3 -3 10 6 28 24 45 34 33 39 22 7 -15 l-23 -26 28 24 c15 14 26 29 25 35 -2
6 13 43 33 81 68 131 74 159 74 365 0 125 -5 200 -14 230 -23 78 -75 172 -123
226 -26 28 -44 55 -40 59 4 5 2 5 -5 1 -6 -3 -28 5 -49 19 -20 14 -42 25 -48
25 -6 0 -5 4 3 9 10 7 8 9 -10 9 -13 -1 -51 6 -84 15 -46 13 -105 17 -267 17
l-208 0 0 -611z m414 551 c174 -28 316 -159 362 -334 17 -62 19 -342 4 -413
-13 -59 -72 -179 -87 -176 -6 1 -19 -8 -29 -20 l-19 -22 23 19 c35 30 26 4
-11 -33 -19 -17 -40 -31 -48 -29 -8 2 -13 -3 -12 -9 3 -15 -74 -56 -134 -72
-23 -6 -123 -13 -222 -16 l-181 -4 0 560 0 559 148 0 c81 0 173 -4 206 -10z"/>
<path d="M2190 1792 c0 -12 19 -26 26 -19 2 2 -2 10 -11 17 -9 8 -15 8 -15 2z"/>
<path d="M2333 1639 c-2 -23 3 -25 10 -4 4 8 3 16 -1 19 -4 3 -9 -4 -9 -15z"/>
<path d="M2424 1330 c0 -58 1 -81 3 -52 2 28 2 76 0 105 -2 28 -3 5 -3 -53z"/>
<path d="M2421 1164 c0 -11 3 -14 6 -6 3 7 2 16 -1 19 -3 4 -6 -2 -5 -13z"/>
<path d="M2345 959 c-4 -6 -5 -12 -2 -15 2 -3 7 2 10 11 7 17 1 20 -8 4z"/>
<path d="M2190 820 c-13 -8 -13 -10 2 -10 9 0 20 5 23 10 8 13 -5 13 -25 0z"/>
<path d="M2088 813 c7 -3 16 -2 19 1 4 3 -2 6 -13 5 -11 0 -14 -3 -6 -6z"/>
<path d="M2098 773 c7 -3 16 -2 19 1 4 3 -2 6 -13 5 -11 0 -14 -3 -6 -6z"/>
<path d="M2290 1836 c7 -7 13 -7 20 0 6 6 3 10 -10 10 -13 0 -16 -4 -10 -10z"/>
<path d="M60 1831 c0 -6 4 -13 10 -16 6 -3 7 1 4 9 -7 18 -14 21 -14 7z"/>
<path d="M2331 1797 c2 -1 13 -9 24 -17 19 -14 19 -14 6 3 -7 9 -18 17 -24 17
-6 0 -8 -1 -6 -3z"/>
<path d="M2385 1769 c-4 -6 -5 -12 -2 -15 2 -3 7 2 10 11 7 17 1 20 -8 4z"/>
<path d="M2501 1514 c0 -11 3 -14 6 -6 3 7 2 16 -1 19 -3 4 -6 -2 -5 -13z"/>
<path d="M2511 1464 c0 -11 3 -14 6 -6 3 7 2 16 -1 19 -3 4 -6 -2 -5 -13z"/>
<path d="M2501 1084 c0 -11 3 -14 6 -6 3 7 2 16 -1 19 -3 4 -6 -2 -5 -13z"/>
<path d="M2456 853 c-6 -14 -5 -15 5 -6 7 7 10 15 7 18 -3 3 -9 -2 -12 -12z"/>
<path d="M592 740 c0 -14 2 -19 5 -12 2 6 2 18 0 25 -3 6 -5 1 -5 -13z"/>
<path d="M1222 730 c0 -19 2 -27 5 -17 2 9 2 25 0 35 -3 9 -5 1 -5 -18z"/>
<path d="M1310 726 c0 -8 4 -17 9 -20 5 -4 7 3 4 14 -6 23 -13 26 -13 6z"/>
<path d="M480 701 c0 -6 4 -13 10 -16 6 -3 7 1 4 9 -7 18 -14 21 -14 7z"/>
<path d="M2190 700 c-8 -5 -10 -10 -5 -10 6 0 17 5 25 10 8 5 11 10 5 10 -5 0
-17 -5 -25 -10z"/>
</g>
</svg>
